<svg width="390" height="182" viewBox="0 0 390 182" fill="none" xmlns="http://www.w3.org/2000/svg">
<g clip-path="url(#clip0_191_55)">
<path d="M119.736 60.8291C120.115 61.4556 120.627 61.9922 121.238 62.4011C121.848 62.8101 122.541 63.0814 123.269 63.1961C123.996 63.3107 124.74 63.2658 125.449 63.0645C126.157 62.8632 126.812 62.5105 127.368 62.0312L142.901 70.8623L142.322 61.6561L127.66 54.6813C126.786 53.8093 125.619 53.2854 124.381 53.2089C123.143 53.1325 121.92 53.5088 120.943 54.2666C119.967 55.0244 119.304 56.111 119.082 57.3205C118.859 58.53 119.092 59.7784 119.736 60.8291Z" fill="#FFB8B8"/>
<path d="M164.708 96.2067C160.101 102.599 160.265 113.295 161.551 125H183.337L184.284 122.809L185.547 125H206.07C206.07 125 204.492 95.2677 201.65 94.3288C198.808 93.3899 164.708 96.2067 164.708 96.2067Z" fill="#2F2E41"/>
<path d="M183.337 29.4159C189.44 29.4159 194.388 24.5116 194.388 18.4618C194.388 12.4121 189.44 7.50781 183.337 7.50781C177.234 7.50781 172.286 12.4121 172.286 18.4618C172.286 24.5116 177.234 29.4159 183.337 29.4159Z" fill="#FFB8B8"/>
<path d="M191.324 32.2578L193.485 36.3635L208.433 42.9684L204.504 80.6582L202.85 84.5612L203.743 87.9506L201.589 90.452C203.752 92.3913 204.026 94.4214 202.85 96.5213L195.967 98.0843C195.967 98.0843 157.694 101.458 160.92 95.5805C164.444 89.1588 165.341 70.1937 157.561 60.0592C150.956 51.4553 156.027 40.2908 156.027 40.2908L171.695 35.6495L177.457 32.2578L191.324 32.2578Z" fill="#3F3D56"/>
<path d="M188.243 2.41595C188.295 2.30704 188.379 2.216 188.483 2.15452C188.588 2.09304 188.708 2.06394 188.83 2.07094C183.77 1.77096 178.441 2.35547 174.209 5.11905C173.183 5.78858 172.217 6.58716 171.101 7.07285C171.048 7.09631 171.002 7.13287 170.968 7.17898C170.934 7.22509 170.912 7.27919 170.906 7.33601C170.899 7.39283 170.907 7.45045 170.929 7.50328C170.951 7.5561 170.987 7.60233 171.032 7.63748L171.155 7.73274C171.203 7.77033 171.24 7.82034 171.262 7.87734C171.284 7.93433 171.289 7.99613 171.278 8.056C171.267 8.11588 171.239 8.17154 171.198 8.21694C171.157 8.26234 171.104 8.29574 171.046 8.3135C170.984 8.33201 170.93 8.3675 170.888 8.41578C170.846 8.46406 170.82 8.52311 170.811 8.586C170.802 8.64888 170.811 8.71297 170.838 8.77071C170.865 8.82844 170.907 8.87743 170.961 8.9119L171.9 9.5136C171.948 9.54337 171.987 9.58444 172.014 9.63304C172.041 9.68164 172.055 9.73622 172.056 9.79176C172.056 9.8473 172.042 9.90202 172.016 9.95092C171.989 9.99981 171.95 10.0413 171.903 10.0716C171.824 10.1203 171.74 10.1623 171.654 10.1971C171.6 10.2172 171.552 10.2507 171.515 10.2944C171.478 10.3381 171.453 10.3905 171.442 10.4466C171.431 10.5027 171.435 10.5606 171.454 10.6147C171.472 10.6688 171.505 10.7172 171.547 10.7554C171.954 11.1143 172.266 11.5664 172.456 12.0722C172.769 12.879 172.825 13.7577 172.878 14.6206C173.202 13.3756 174.573 12.6427 175.867 12.5683C177.162 12.4938 178.425 12.9173 179.685 13.2217C182.43 13.8828 185.28 13.9915 188.068 13.5413C187.121 15.4244 187.92 17.6705 188.723 19.6178L191.324 18.5127C194.897 16.5139 192.408 24.969 191.073 26.1297C193.8 27.0668 200.937 16.6662 198.641 12.7211C197.446 10.6688 198.294 8.02198 195.946 6.07559C194.795 4.87473 192.498 5.40847 191.324 4.41041C190.863 4.01759 191.566 2.96666 190.932 2.73763C190.721 2.66156 188.278 2.33928 188.243 2.41595Z" fill="#2F2E41"/>
<path d="M169.525 36.71C167.497 45.6337 162.296 66.4693 157.019 70.8268C156.685 71.14 156.283 71.3748 155.845 71.514C137.298 75.9928 131.355 64.5682 131.355 64.5682C131.355 64.5682 136.325 62.1672 136.451 57.4742L146.475 60.5571L155.213 41.0656L156.499 39.8767L156.506 39.8696L169.525 36.71Z" fill="#3F3D56"/>
<path d="M209.071 119.116C209.602 118.61 210.014 117.995 210.28 117.314C210.545 116.632 210.656 115.902 210.606 115.173C210.555 114.445 210.344 113.736 209.988 113.097C209.631 112.458 209.137 111.904 208.541 111.475L213.741 94.4893L204.82 97.1127L201.25 112.84C200.588 113.88 200.335 115.125 200.537 116.338C200.74 117.551 201.384 118.648 202.348 119.422C203.312 120.195 204.529 120.591 205.768 120.535C207.007 120.479 208.182 119.974 209.071 119.116Z" fill="#FFB8B8"/>
<path d="M204.312 42.0181L208.433 42.9683C208.433 42.9683 225.466 75.8191 221.362 82.0785C217.257 88.338 212.229 109.061 212.229 109.061C212.229 109.061 204.791 107.596 201.95 103.84L207.153 79.2618L201.786 58.6056L204.312 42.0181Z" fill="#3F3D56"/>
<path d="M126.128 90.8009L126.276 37.8926C126.28 36.8218 126.713 35.7963 127.479 35.0412C128.245 34.2861 129.282 33.863 130.362 33.8648L170.673 33.9755C171.753 33.9797 172.788 34.4085 173.55 35.1678C174.311 35.9271 174.738 36.955 174.736 38.0258L174.588 90.9341C174.584 92.0049 174.152 93.0304 173.386 93.7855C172.62 94.5406 171.583 94.9637 170.502 94.962L130.191 94.8512C129.111 94.847 128.076 94.4182 127.315 93.6589C126.553 92.8996 126.126 91.8718 126.128 90.8009Z" fill="#E6E6E6"/>
<path d="M129.265 74.8285L129.36 40.8142C129.364 39.8113 129.769 38.8509 130.486 38.1437C131.204 37.4366 132.175 37.0403 133.187 37.042L167.83 37.1372C168.842 37.1411 169.811 37.5426 170.525 38.2538C171.238 38.9649 171.638 39.9275 171.636 40.9304L171.505 88.0116C171.501 89.0145 171.095 89.9749 170.378 90.6821C169.661 91.3893 168.689 91.7855 167.678 91.7838L146.216 91.7248C141.71 91.7074 137.394 89.9187 134.216 86.7511C131.038 83.5835 129.257 79.2958 129.265 74.8285Z" fill="white"/>
<path d="M163.861 51.9832H136.847C136.418 51.9832 136.005 51.8139 135.701 51.5126C135.397 51.2113 135.227 50.8027 135.227 50.3766C135.227 49.9505 135.397 49.5419 135.701 49.2406C136.005 48.9393 136.418 48.77 136.847 48.77H163.861C164.291 48.77 164.703 48.9393 165.007 49.2406C165.311 49.5419 165.482 49.9505 165.482 50.3766C165.482 50.8027 165.311 51.2113 165.007 51.5126C164.703 51.8139 164.291 51.9832 163.861 51.9832Z" fill="#7342D5"/>
<path d="M142.79 44.575H136.847C136.418 44.575 136.005 44.4057 135.701 44.1044C135.397 43.8031 135.227 43.3945 135.227 42.9684C135.227 42.5423 135.397 42.1337 135.701 41.8324C136.005 41.5311 136.418 41.3618 136.847 41.3618H142.79C143.22 41.3618 143.633 41.5311 143.936 41.8324C144.24 42.1337 144.411 42.5423 144.411 42.9684C144.411 43.3945 144.24 43.8031 143.936 44.1044C143.633 44.4057 143.22 44.575 142.79 44.575Z" fill="#7342D5"/>
<path d="M163.861 59.3914H136.847C136.418 59.3914 136.005 59.2221 135.701 58.9208C135.397 58.6195 135.227 58.2109 135.227 57.7848C135.227 57.3587 135.397 56.9501 135.701 56.6488C136.005 56.3475 136.418 56.1782 136.847 56.1782H163.861C164.291 56.1782 164.703 56.3475 165.007 56.6488C165.311 56.9501 165.482 57.3587 165.482 57.7848C165.482 58.2109 165.311 58.6195 165.007 58.9208C164.703 59.2221 164.291 59.3914 163.861 59.3914Z" fill="#7342D5"/>
<path d="M163.861 66.7996H136.847C136.418 66.7996 136.005 66.6303 135.701 66.329C135.397 66.0278 135.227 65.6191 135.227 65.193C135.227 64.7669 135.397 64.3583 135.701 64.057C136.005 63.7557 136.418 63.5864 136.847 63.5864H163.861C164.291 63.5864 164.703 63.7557 165.007 64.057C165.311 64.3583 165.482 64.7669 165.482 65.193C165.482 65.6191 165.311 66.0278 165.007 66.329C164.703 66.6303 164.291 66.7996 163.861 66.7996Z" fill="#7342D5"/>
<path d="M161.675 86.3199C165.237 86.3199 168.124 83.4578 168.124 79.9273C168.124 76.3967 165.237 73.5347 161.675 73.5347C158.113 73.5347 155.226 76.3967 155.226 79.9273C155.226 83.4578 158.113 86.3199 161.675 86.3199Z" fill="#7342D5"/>
<path d="M160.795 83.2542C160.684 83.2542 160.574 83.2285 160.474 83.1791C160.375 83.1298 160.288 83.0581 160.221 82.9697L158.462 80.6444C158.405 80.5697 158.364 80.4846 158.341 80.3941C158.317 80.3036 158.312 80.2094 158.325 80.1169C158.338 80.0244 158.37 79.9353 158.418 79.8549C158.466 79.7745 158.53 79.7042 158.605 79.6482C158.68 79.5921 158.766 79.5513 158.858 79.5281C158.949 79.505 159.044 79.4999 159.137 79.5132C159.231 79.5264 159.32 79.5578 159.401 79.6055C159.483 79.6532 159.553 79.7163 159.61 79.7911L160.761 81.3123L163.717 76.9166C163.769 76.8386 163.837 76.7716 163.915 76.7193C163.993 76.6671 164.081 76.6307 164.174 76.6122C164.266 76.5937 164.361 76.5935 164.454 76.6116C164.547 76.6296 164.635 76.6657 164.713 76.7176C164.792 76.7695 164.859 76.8362 164.912 76.914C164.964 76.9918 165.001 77.0791 165.019 77.1709C165.037 77.2627 165.037 77.3571 165.019 77.4489C165 77.5406 164.964 77.6279 164.911 77.7055L161.392 82.9376C161.329 83.0322 161.243 83.1103 161.143 83.1654C161.042 83.2204 160.93 83.2508 160.815 83.254C160.809 83.2541 160.802 83.2542 160.795 83.2542Z" fill="white"/>
<path d="M147.923 21.5474C149.614 21.5474 150.984 20.1887 150.984 18.5127C150.984 16.8367 149.614 15.478 147.923 15.478C146.232 15.478 144.861 16.8367 144.861 18.5127C144.861 20.1887 146.232 21.5474 147.923 21.5474Z" fill="#F2F2F2"/>
<path d="M136.757 108.838C138.448 108.838 139.819 107.48 139.819 105.804C139.819 104.128 138.448 102.769 136.757 102.769C135.067 102.769 133.696 104.128 133.696 105.804C133.696 107.48 135.067 108.838 136.757 108.838Z" fill="#F2F2F2"/>
<path d="M207.172 33.3291C208.863 33.3291 210.234 31.9704 210.234 30.2944C210.234 28.6184 208.863 27.2598 207.172 27.2598C205.481 27.2598 204.111 28.6184 204.111 30.2944C204.111 31.9704 205.481 33.3291 207.172 33.3291Z" fill="#F2F2F2"/>
<path d="M276.822 125.425V179.905H140.239C124.677 179.905 112.016 167.685 112.016 152.665C112.016 137.645 124.677 125.425 140.239 125.425H276.822Z" fill="#F2F2F2"/>
<path d="M280.177 179.486C280.177 180.041 279.956 180.574 279.562 180.967C279.169 181.36 278.636 181.581 278.08 181.581H137.806C130.187 181.581 122.881 178.557 117.494 173.173C112.107 167.789 109.08 160.488 109.08 152.874C109.08 145.261 112.107 137.959 117.494 132.576C122.881 127.192 130.187 124.168 137.806 124.168H278.08C278.636 124.168 279.17 124.389 279.563 124.782C279.956 125.175 280.177 125.708 280.177 126.263C280.177 126.819 279.956 127.352 279.563 127.745C279.17 128.138 278.636 128.359 278.08 128.359H137.806C131.3 128.359 125.06 130.942 120.459 135.539C115.858 140.137 113.274 146.372 113.274 152.874C113.274 159.376 115.858 165.612 120.459 170.21C125.06 174.807 131.3 177.39 137.806 177.39H278.08C278.636 177.39 279.169 177.611 279.562 178.004C279.956 178.397 280.177 178.93 280.177 179.486Z" fill="#CCCCCC"/>
<path d="M276.822 137.997H130.048C129.937 137.997 129.83 137.953 129.751 137.875C129.673 137.796 129.629 137.689 129.629 137.578C129.629 137.467 129.673 137.361 129.751 137.282C129.83 137.203 129.937 137.159 130.048 137.159H276.822C276.933 137.159 277.04 137.203 277.119 137.282C277.197 137.361 277.241 137.467 277.241 137.578C277.241 137.689 277.197 137.796 277.119 137.875C277.04 137.953 276.933 137.997 276.822 137.997Z" fill="#CCCCCC"/>
<path d="M276.822 148.055H130.048C129.937 148.055 129.83 148.011 129.751 147.932C129.673 147.854 129.629 147.747 129.629 147.636C129.629 147.525 129.673 147.418 129.751 147.34C129.83 147.261 129.937 147.217 130.048 147.217H276.822C276.933 147.217 277.04 147.261 277.119 147.34C277.197 147.418 277.241 147.525 277.241 147.636C277.241 147.747 277.197 147.854 277.119 147.932C277.04 148.011 276.933 148.055 276.822 148.055Z" fill="#CCCCCC"/>
<path d="M276.822 158.113H130.048C129.937 158.113 129.83 158.069 129.751 157.99C129.673 157.912 129.629 157.805 129.629 157.694C129.629 157.583 129.673 157.476 129.751 157.398C129.83 157.319 129.937 157.275 130.048 157.275H276.822C276.933 157.275 277.04 157.319 277.119 157.398C277.197 157.476 277.241 157.583 277.241 157.694C277.241 157.805 277.197 157.912 277.119 157.99C277.04 158.069 276.933 158.113 276.822 158.113Z" fill="#CCCCCC"/>
<path d="M276.822 168.171H130.048C129.937 168.171 129.83 168.127 129.751 168.048C129.673 167.969 129.629 167.863 129.629 167.752C129.629 167.64 129.673 167.534 129.751 167.455C129.83 167.377 129.937 167.333 130.048 167.333H276.822C276.933 167.333 277.04 167.377 277.119 167.455C277.197 167.534 277.241 167.64 277.241 167.752C277.241 167.863 277.197 167.969 277.119 168.048C277.04 168.127 276.933 168.171 276.822 168.171Z" fill="#CCCCCC"/>
<path d="M382.381 135.68L348.176 178.102L241.822 92.4649C229.704 82.7076 227.517 65.2535 236.947 53.558C246.377 41.8625 263.908 40.2856 276.026 50.0428L382.381 135.68Z" fill="#F2F2F2"/>
<path d="M351.052 179.88C350.703 180.312 350.196 180.588 349.643 180.648C349.091 180.707 348.537 180.545 348.104 180.197L238.875 92.2448C232.942 87.468 229.152 80.5317 228.337 72.962C227.522 65.3922 229.75 57.809 234.53 51.8806C239.31 45.9522 246.251 42.1641 253.826 41.3498C261.4 40.5355 268.989 42.7616 274.921 47.5385L384.15 135.49C384.365 135.663 384.543 135.876 384.675 136.117C384.807 136.359 384.89 136.624 384.92 136.898C384.95 137.172 384.925 137.448 384.847 137.713C384.77 137.977 384.641 138.223 384.468 138.437C384.295 138.652 384.082 138.83 383.84 138.962C383.598 139.094 383.333 139.177 383.059 139.206C382.785 139.235 382.508 139.211 382.244 139.133C381.98 139.055 381.733 138.926 381.519 138.753L272.29 50.8017C269.782 48.7803 266.899 47.2725 263.808 46.3645C260.716 45.4565 257.475 45.1661 254.271 45.5099C251.067 45.8537 247.963 46.825 245.134 48.3682C242.306 49.9114 239.81 51.9963 237.788 54.5039C235.766 57.0115 234.258 59.8925 233.351 62.9825C232.444 66.0724 232.154 69.3108 232.499 72.5125C232.845 75.7142 233.818 78.8166 235.363 81.6424C236.909 84.4682 238.996 86.9621 241.506 88.9816L350.735 176.933C351.168 177.282 351.444 177.788 351.504 178.341C351.563 178.893 351.401 179.447 351.052 179.88Z" fill="#7342D5"/>
<path d="M374.488 145.47L260.198 53.4427C260.155 53.4081 260.119 53.3655 260.093 53.3172C260.066 53.2689 260.05 53.2159 260.044 53.1612C260.038 53.1064 260.043 53.0511 260.058 52.9983C260.074 52.9455 260.1 52.8962 260.134 52.8534C260.169 52.8105 260.211 52.7749 260.26 52.7485C260.308 52.7222 260.361 52.7056 260.416 52.6997C260.471 52.6938 260.526 52.6987 260.579 52.7142C260.632 52.7297 260.681 52.7555 260.724 52.79L375.014 144.817C375.057 144.852 375.093 144.894 375.119 144.943C375.146 144.991 375.162 145.044 375.168 145.099C375.174 145.154 375.169 145.209 375.154 145.262C375.138 145.315 375.112 145.364 375.078 145.407C375.043 145.45 375 145.485 374.952 145.512C374.904 145.538 374.851 145.555 374.796 145.561C374.741 145.566 374.686 145.561 374.633 145.546C374.58 145.53 374.531 145.504 374.488 145.47Z" fill="#CCCCCC"/>
<path d="M368.173 153.302L253.883 61.2744C253.796 61.2046 253.741 61.1033 253.729 60.9929C253.717 60.8825 253.75 60.7719 253.82 60.6854C253.889 60.599 253.991 60.5437 254.101 60.5317C254.212 60.5198 254.322 60.5521 254.409 60.6217L368.699 152.649C368.742 152.683 368.778 152.726 368.804 152.774C368.831 152.823 368.847 152.876 368.853 152.931C368.859 152.985 368.854 153.041 368.839 153.094C368.823 153.146 368.798 153.196 368.763 153.239C368.728 153.281 368.686 153.317 368.637 153.343C368.589 153.37 368.536 153.386 368.481 153.392C368.426 153.398 368.371 153.393 368.318 153.378C368.265 153.362 368.216 153.336 368.173 153.302Z" fill="#CCCCCC"/>
<path d="M361.858 161.133L247.568 69.1062C247.482 69.0365 247.426 68.9352 247.414 68.8247C247.402 68.7142 247.435 68.6035 247.505 68.517C247.574 68.4304 247.676 68.3751 247.786 68.3632C247.897 68.3514 248.008 68.3839 248.094 68.4536L362.385 160.481C362.427 160.515 362.463 160.558 362.489 160.606C362.516 160.655 362.532 160.708 362.538 160.762C362.544 160.817 362.539 160.872 362.524 160.925C362.508 160.978 362.482 161.027 362.448 161.07C362.413 161.113 362.371 161.149 362.322 161.175C362.274 161.201 362.221 161.218 362.166 161.224C362.112 161.23 362.056 161.225 362.003 161.209C361.95 161.194 361.901 161.168 361.858 161.133Z" fill="#CCCCCC"/>
<path d="M355.544 168.965L241.253 76.9383C241.211 76.9037 241.175 76.8611 241.148 76.8128C241.122 76.7645 241.105 76.7115 241.1 76.6568C241.094 76.602 241.099 76.5467 241.114 76.4939C241.13 76.4411 241.155 76.3919 241.19 76.349C241.225 76.3061 241.267 76.2705 241.316 76.2441C241.364 76.2178 241.417 76.2012 241.472 76.1953C241.526 76.1894 241.582 76.1943 241.635 76.2098C241.687 76.2253 241.737 76.2511 241.78 76.2856L356.07 168.313C356.113 168.347 356.148 168.39 356.175 168.438C356.201 168.487 356.218 168.54 356.224 168.594C356.23 168.649 356.225 168.705 356.21 168.757C356.194 168.81 356.168 168.86 356.134 168.902C356.099 168.945 356.056 168.981 356.008 169.007C355.96 169.034 355.907 169.05 355.852 169.056C355.797 169.062 355.741 169.057 355.689 169.041C355.636 169.026 355.586 169 355.544 168.965Z" fill="#CCCCCC"/>
<path d="M389.476 182H0.524194C0.385169 182 0.251838 181.947 0.153532 181.854C0.055227 181.76 0 181.633 0 181.5C0 181.367 0.055227 181.24 0.153532 181.146C0.251838 181.053 0.385169 181 0.524194 181H389.476C389.615 181 389.748 181.053 389.846 181.146C389.945 181.24 390 181.367 390 181.5C390 181.633 389.945 181.76 389.846 181.854C389.748 181.947 389.615 182 389.476 182Z" fill="#CCCCCC"/>
<path d="M100.297 154.657C89.6101 165.204 76.831 173.394 62.7852 178.697C61.9528 179.016 61.0457 179.087 60.1743 178.9C59.3029 178.713 58.5049 178.276 57.8775 177.644L31.4291 151.195C30.5636 150.328 30.0778 149.152 30.0782 147.927C30.0786 146.701 30.5653 145.525 31.4313 144.657L90.2968 85.7914C91.1648 84.9254 92.3407 84.4388 93.5665 84.4383C94.7922 84.4379 95.9678 84.9238 96.8352 85.7892L123.284 112.238C123.916 112.865 124.353 113.663 124.54 114.534C124.727 115.406 124.656 116.313 124.337 117.145C119.034 131.191 110.844 143.97 100.297 154.657Z" fill="#7342D5"/>
<path d="M78.8624 133.239C78.4264 133.676 77.9075 134.021 77.3363 134.255L10.9758 161.253C10.1201 161.601 9.1798 161.685 8.27627 161.494C7.37274 161.303 6.54735 160.846 5.90653 160.181C5.26571 159.516 4.83886 158.674 4.68097 157.764C4.52309 156.855 4.64141 155.918 5.02072 155.076L34.0039 90.6984C34.4694 89.6602 35.3025 88.8307 36.3427 88.3696L100.094 60.0119C100.935 59.6379 101.868 59.5232 102.774 59.6825C103.68 59.8418 104.518 60.2678 105.18 60.906C105.842 61.5442 106.299 62.3655 106.492 63.265C106.684 64.1645 106.604 65.1012 106.262 65.9553L79.887 131.691C79.6534 132.271 79.3049 132.797 78.8624 133.239Z" fill="#7342D5"/>
<path d="M69.4273 179.147C71.8737 176.701 71.8751 172.736 69.4303 170.291C66.9855 167.846 63.0204 167.848 60.574 170.294C58.1276 172.74 58.1263 176.706 60.5711 179.15C63.0158 181.595 66.9809 181.594 69.4273 179.147Z" fill="#3F3D56"/>
<path opacity="0.2" d="M103.627 63.0023L77.2518 128.738C77.0462 129.251 76.7394 129.717 76.3499 130.108C75.9603 130.5 75.496 130.809 74.9845 131.017L8.62457 158.016C7.79707 158.361 6.87842 158.42 6.01373 158.185C6.16457 158.747 6.43339 159.271 6.8023 159.722C7.17122 160.172 7.63181 160.539 8.15348 160.798C8.67515 161.057 9.24597 161.201 9.82804 161.223C10.4101 161.244 10.9901 161.141 11.5295 160.921L77.8895 133.922C78.4009 133.713 78.8653 133.405 79.2549 133.013C79.6444 132.622 79.9512 132.156 80.1568 131.643L106.531 65.9073C106.748 65.3684 106.848 64.7897 106.825 64.2094C106.802 63.6292 106.656 63.0605 106.396 62.541C106.137 62.0216 105.771 61.563 105.321 61.1957C104.871 60.8285 104.349 60.5608 103.788 60.4103C104.021 61.2683 103.965 62.1795 103.627 63.0023Z" fill="black"/>
<path d="M64.0998 172.233C64.2926 172.04 64.4009 171.778 64.401 171.506C64.4011 171.233 64.2929 170.972 64.1003 170.78L39.7991 146.478L55.0418 113.784C55.2374 113.594 55.3496 113.334 55.3537 113.062C55.3579 112.789 55.2536 112.526 55.0639 112.331C54.8741 112.135 54.6145 112.023 54.342 112.019C54.0695 112.015 53.8065 112.12 53.6109 112.31L38.3683 145.004C38.171 145.193 38.0139 145.419 37.9067 145.67C37.7994 145.921 37.7442 146.191 37.7444 146.464C37.7414 146.736 37.7931 147.007 37.8964 147.259C37.9996 147.511 38.1524 147.74 38.3457 147.932L62.6469 172.233C62.8395 172.426 63.1008 172.534 63.3732 172.534C63.6457 172.534 63.9071 172.425 64.0998 172.233Z" fill="#3F3D56"/>
</g>
<defs>
<clipPath id="clip0_191_55">
<rect width="390" height="182" fill="white"/>
</clipPath>
</defs>
</svg>
